<svg width="68" height="58" viewBox="0 0 68 58" fill="none" xmlns="http://www.w3.org/2000/svg">
<path d="M30.51 7.50461C31.0993 8.68794 31.0921 9.85078 30.8706 11.1253C29.9615 12.5541 28.559 12.9799 27.0604 13.6173C22.6352 15.6571 20.0775 18.9707 18.2498 23.4355C17.1344 27.6832 17.8228 31.8443 19.6922 35.7458C20.3288 36.8067 21.0256 37.7283 21.8558 38.6423C22.1309 38.956 22.4061 39.2696 22.6896 39.5928C26.8176 43.2556 30.8717 44.1168 36.2637 43.7894C37.8796 43.6181 39.2097 43.0672 40.6067 42.263C40.8684 42.1151 41.1301 41.9671 41.3997 41.8147C45.1957 39.5391 47.6239 36.4236 49.0229 32.1789C49.9956 27.5211 49.3162 23.2675 46.8495 19.2039C44.5518 15.9716 41.5442 13.9092 37.8402 12.5933C37.0007 12.2115 37.0007 12.2115 36.2795 11.1253C36.0842 9.86191 36.0657 8.65825 36.6401 7.50461C37.975 6.83448 39.5436 6.93491 40.9525 7.35133C41.6697 7.64942 42.3528 7.98088 43.0407 8.34189C43.2893 8.4703 43.538 8.59871 43.7942 8.73101C49.8003 11.9902 52.9144 17.0614 55.0305 23.4355C55.3499 27.8666 55.675 32.801 53.5881 36.832C53.3001 37.3921 53.3001 37.3921 53.0063 37.9635C49.8614 43.6769 45.2065 47.6125 38.8939 49.4591C32.9719 50.7649 27.0328 49.7524 21.8558 46.6078C17.0859 43.3755 13.4263 38.5197 12.2902 32.7955C11.4151 25.6355 12.4074 19.8021 16.8074 14.0218C18.9397 11.4132 21.4106 9.76956 24.3799 8.22875C24.7439 8.03202 24.7439 8.03202 25.1152 7.83132C26.809 6.99652 28.7618 6.6269 30.51 7.50461Z" fill="#FF0606"/>
<path d="M23.7734 32.1299C24.4395 32.4665 25.1466 32.6348 25.895 32.6348C26.647 32.6348 27.2235 32.4772 27.6245 32.1621C28.0256 31.8434 28.2261 31.3887 28.2261 30.7979C28.2261 30.2751 28.022 29.8758 27.6138 29.6001C27.2056 29.3208 26.6094 29.1812 25.8252 29.1812H24.9766V28.6655H25.8359C26.484 28.6655 26.9997 28.5116 27.3828 28.2036C27.766 27.8921 27.9575 27.4714 27.9575 26.9414C27.9575 26.5046 27.8018 26.1554 27.4902 25.894C27.1823 25.6291 26.7777 25.4966 26.2764 25.4966C25.8825 25.4966 25.528 25.5503 25.2129 25.6577C24.8978 25.7651 24.5343 25.9531 24.1226 26.2217L23.8594 25.8618C24.1745 25.604 24.5433 25.4017 24.9658 25.2549C25.3919 25.1081 25.8252 25.0347 26.2656 25.0347C26.9854 25.0347 27.5422 25.2065 27.936 25.5503C28.3299 25.8905 28.5269 26.3721 28.5269 26.9951C28.5269 27.4857 28.3729 27.8975 28.0649 28.2305C27.7606 28.5635 27.3524 28.7747 26.8403 28.8643V28.8965C27.4705 28.9753 27.9504 29.1758 28.2798 29.498C28.6092 29.8203 28.7739 30.2536 28.7739 30.7979C28.7739 31.5355 28.5233 32.1048 28.022 32.5059C27.5207 32.9069 26.8027 33.1074 25.8682 33.1074C25.0768 33.1074 24.3786 32.9588 23.7734 32.6616V32.1299ZM34.6499 25.6631H31.3735L31.1318 28.4346C31.7012 28.3307 32.138 28.2788 32.4424 28.2788C33.2803 28.2788 33.9391 28.4829 34.4189 28.8911C34.9023 29.2957 35.144 29.8507 35.144 30.5562C35.144 31.3582 34.8934 31.9849 34.3921 32.436C33.8908 32.8836 33.2087 33.1074 32.3457 33.1074C31.4827 33.1074 30.8096 32.9588 30.3262 32.6616V32.1084C30.6986 32.2982 31.0387 32.4342 31.3467 32.5166C31.6546 32.5954 31.9787 32.6348 32.3188 32.6348C33.0063 32.6348 33.5578 32.4539 33.9731 32.0923C34.3885 31.7271 34.5962 31.2437 34.5962 30.6421C34.5962 30.0405 34.3939 29.5732 33.9893 29.2402C33.5846 28.9072 33.035 28.7407 32.3403 28.7407C31.8748 28.7407 31.3879 28.8105 30.8794 28.9502L30.5571 28.7407L30.8687 25.1475H34.6499V25.6631ZM36.4492 27.4785C36.4492 26.6872 36.5781 26.082 36.8359 25.6631C37.0938 25.2441 37.4715 25.0347 37.9692 25.0347C38.4705 25.0347 38.8573 25.2495 39.1294 25.6792C39.4015 26.1089 39.5376 26.7194 39.5376 27.5107C39.5376 28.3021 39.4033 28.909 39.1348 29.3315C38.8662 29.7541 38.4867 29.9653 37.9961 29.9653C37.5055 29.9653 37.1242 29.7487 36.8521 29.3154C36.5835 28.8822 36.4492 28.2699 36.4492 27.4785ZM38.3613 33H37.8457L42.2017 25.1475H42.7173L38.3613 33ZM39.0112 27.4893C39.0112 26.834 38.9217 26.3398 38.7427 26.0068C38.5672 25.6738 38.3094 25.5073 37.9692 25.5073C37.6326 25.5073 37.382 25.672 37.2173 26.0015C37.0562 26.3309 36.9756 26.8304 36.9756 27.5C36.9756 28.166 37.0562 28.6655 37.2173 28.9985C37.382 29.328 37.6344 29.4927 37.9746 29.4927C38.6657 29.4927 39.0112 28.8249 39.0112 27.4893ZM41.0254 30.6367C41.0254 29.8418 41.1561 29.2367 41.4175 28.8213C41.6825 28.4023 42.062 28.1929 42.5562 28.1929C43.0503 28.1929 43.4334 28.4077 43.7056 28.8374C43.9777 29.2635 44.1138 29.874 44.1138 30.6689C44.1138 31.4639 43.9813 32.0726 43.7163 32.4951C43.4513 32.9141 43.07 33.1235 42.5723 33.1235C42.0781 33.1235 41.6968 32.9087 41.4282 32.479C41.1597 32.0457 41.0254 31.4316 41.0254 30.6367ZM42.5508 28.6655C42.2106 28.6655 41.9582 28.8285 41.7935 29.1543C41.6323 29.4801 41.5518 29.9779 41.5518 30.6475C41.5518 31.3171 41.6323 31.8166 41.7935 32.146C41.9582 32.4718 42.2106 32.6348 42.5508 32.6348C43.2419 32.6348 43.5874 31.9741 43.5874 30.6528C43.5874 29.328 43.2419 28.6655 42.5508 28.6655Z" fill="black"/>
</svg>
