<svg width="184" height="200" viewBox="0 0 184 200" fill="none" xmlns="http://www.w3.org/2000/svg">
<path d="M183.218 78.8285C181.426 34.607 145.406 0 101.105 0C56.8519 0 20.6519 35.1496 18.9624 78.9992C13.2905 90.1012 3.06593 110.941 2.59835 111.895C-0.0516518 117.183 -0.15087 123.409 2.36866 128.88C4.87882 134.335 9.66436 138.305 15.4972 139.764L19.2413 140.704C21.0577 148.901 23.7882 161.259 24.6437 165.186C27.8671 180.019 35.6585 186.348 50.6964 186.348C52.7792 186.348 54.8991 186.223 56.9632 186.022V187.305V200H69.6581H144.129H156.823V187.305V161.243C156.823 152.751 159.446 144.516 163.834 139.216C181.907 117.406 184.367 94.384 183.218 78.8285ZM154.059 131.117C146.726 139.969 144.129 151.805 144.129 161.243V187.305H69.6585V170.839C69.6585 170.839 59.387 173.653 50.6968 173.653C42.0124 173.653 39.0433 171.663 37.0476 162.482C35.7273 156.42 29.9405 130.293 29.9405 130.293L18.5816 127.451C16.5144 126.933 14.7913 125.507 13.8987 123.567C13.0062 121.63 13.0401 119.393 13.9948 117.486C13.9948 117.486 26.4171 92.1648 31.5956 82.191C31.6019 43.809 62.719 12.6949 101.105 12.6949C104.005 12.6949 106.844 12.9332 109.65 13.2746V67.9219C97.6983 71.6383 89.0206 82.7863 89.0206 95.9586C89.0206 107.439 95.6249 117.35 105.224 122.179C103.218 127.91 99.6167 133.895 93.6909 138.491C89.0144 142.107 82.8433 144.971 74.5249 146.15C72.8202 143.797 70.071 142.254 66.9437 142.254H54.2366C49.0546 142.254 44.8546 146.454 44.8546 151.642C44.8546 156.821 49.0546 161.02 54.2366 161.02H66.9437C70.7191 161.02 73.9515 158.779 75.4394 155.568C81.1015 154.797 86.178 153.402 90.5698 151.406C100.64 146.838 107.297 139.496 111.289 132.011C112.541 129.661 113.521 127.312 114.314 125.003C115.644 125.186 116.995 125.316 118.377 125.316C134.59 125.316 147.734 112.172 147.734 95.959C147.734 82.2133 138.272 70.7059 125.518 67.5133V17.1797C151.053 26.7816 169.467 50.9191 170.542 79.5539C171.673 94.282 168.806 113.321 154.059 131.117Z" fill="white"/>
</svg>
