<svg width="20" height="17" viewBox="0 0 20 17" fill="none" xmlns="http://www.w3.org/2000/svg">
<path d="M13.7707 1.6679C15.3284 2.76116 16.4285 4.47724 16.6464 6.186C16.8074 8.05707 16.3005 9.64158 15.1325 11.2251C15.063 11.3194 15.063 11.3194 14.992 11.4156C14.9569 11.4633 14.9217 11.5109 14.8855 11.56C14.9475 11.6126 15.0096 11.6651 15.0735 11.7193C15.6576 12.2143 16.2414 12.7095 16.8249 13.2049C17.125 13.4596 17.4251 13.7142 17.7254 13.9687C18.0151 14.2141 18.3046 14.4597 18.5939 14.7055C18.7044 14.7994 18.8151 14.8932 18.9258 14.9869C19.0806 15.1179 19.235 15.2491 19.3894 15.3805C19.4775 15.4552 19.5656 15.5299 19.6564 15.6069C19.8972 15.8245 19.9535 15.9161 20 16.2126C19.9612 16.4934 19.9612 16.4934 19.741 16.7467C19.4432 16.9339 19.4432 16.9339 19.1519 17C18.2908 16.8277 17.5651 15.965 16.9604 15.4476C16.865 15.3664 16.7696 15.2851 16.6713 15.2014C16.4204 14.9877 16.1699 14.7737 15.9194 14.5597C15.6626 14.3404 15.4055 14.1214 15.1485 13.9023C14.6462 13.4742 14.1442 13.0457 13.6424 12.6171C13.5645 12.6598 13.4865 12.7024 13.4062 12.7463C13.3038 12.8021 13.2014 12.8578 13.0959 12.9153C12.9944 12.9706 12.8929 13.0259 12.7884 13.083C10.9266 14.0671 8.71207 14.3528 6.57272 14.0212C5.26662 13.7412 4.11975 13.2533 3.07671 12.529C3.01022 12.4858 2.94372 12.4425 2.87521 12.3979C1.50985 11.4736 0.747498 10.1358 0.279904 8.74084C0.241448 8.63148 0.241448 8.63148 0.202215 8.51991C-0.291835 6.84502 0.16103 5.03495 1.10859 3.54307C1.36152 3.20171 1.63741 2.88634 1.93727 2.574C1.98815 2.51744 2.03902 2.46089 2.09144 2.40262C3.24953 1.16521 5.13547 0.333381 6.94822 0.0532312C9.50037 -0.178326 11.7374 0.342986 13.7707 1.6679ZM3.06336 3.59091C2.62678 4.09533 2.30635 4.63383 2.04086 5.21693C2.00761 5.28881 1.97436 5.3607 1.94011 5.43476C1.36503 6.90658 1.73352 8.51053 2.51994 9.86959C3.36835 11.0851 4.64608 11.9344 6.18428 12.4409C6.2688 12.4692 6.35333 12.4975 6.44041 12.5266C8.17097 13.0157 10.0569 12.7023 11.6549 12.0335C13.1305 11.2885 14.1049 10.19 14.6783 8.82894C14.7115 8.75512 14.7448 8.6813 14.779 8.60525C15.3305 7.19603 15.0118 5.67051 14.2575 4.36899C13.38 3.06146 12.091 2.19874 10.4313 1.69302C10.3445 1.66474 10.2577 1.63646 10.1683 1.60733C7.54536 0.864899 4.77078 1.85634 3.06336 3.59091Z" fill="#A8A8A8" fill-opacity="0.92"/>
</svg>
